D:\school\WTK\thesis\model\3dpredictsim\Results\batch_windlass\Pog_s1_tmt_aCst_d00_k1000_WL30_ig24_pas_GRF.mot
nRows=20
nColumns=19

name D:\school\WTK\thesis\model\3dpredictsim\Results\batch_windlass\Pog_s1_tmt_aCst_d00_k1000_WL30_ig24_pas_GRF.mot
datacolumns 19
datarows 20
range 0.0000000000 0.2119259389
endheader
time 	ground_force_vx	ground_force_vy	ground_force_vz	ground_force_px	ground_force_py	ground_force_pz	1_ground_force_vx	1_ground_force_vy	1_ground_force_vz	1_ground_force_px	1_ground_force_py	1_ground_force_pz	ground_torque_x	ground_torque_y	ground_torque_z	1_ground_torque_x	1_ground_torque_y	1_ground_torque_z
        0.0000000000	      -79.5253308748	       67.5378879612	       31.7857213950	        0.1645130274	        0.0000000000	        0.0387632687	       85.0015305492	      442.1729443015	       -4.3490312750	       -0.3216173772	        0.0000000000	       -0.0315965241	        0.0000000000	        0.0000000000	        0.0000000000	        0.0000000000	        0.0000000000	        0.0000000000	
        0.0111539968	     -122.6963806576	      145.9707378314	       78.5421492554	        0.1715569420	        0.0000000000	        0.0365614499	       61.6639300725	      347.4668223214	      -11.1116290258	       -0.3157845986	        0.0000000000	       -0.0294249954	        0.0000000000	        0.0000000000	        0.0000000000	        0.0000000000	        0.0000000000	        0.0000000000	
        0.0223079936	      -52.6699815414	      293.3801325377	       30.7442395549	        0.1772538535	        0.0000000000	        0.0341066592	       31.4061653350	      241.8626072256	      -11.8744104511	       -0.3056698727	        0.0000000000	       -0.0247120575	        0.0000000000	        0.0000000000	        0.0000000000	        0.0000000000	        0.0000000000	        0.0000000000	
        0.0334619903	      -46.8510604029	      464.1755432915	        3.4177489371	        0.1818206099	        0.0000000000	        0.0344660196	       12.0664869775	      161.2432342957	      -10.3723111463	       -0.2918504963	        0.0000000000	       -0.0170984807	        0.0000000000	        0.0000000000	        0.0000000000	        0.0000000000	        0.0000000000	        0.0000000000	
        0.0446159871	      -72.5401565185	      670.7079199684	       -8.1671823164	        0.1902096876	        0.0000000000	        0.0369421944	        0.8391004140	      129.4319385711	       -8.9416516558	       -0.2920285448	        0.0000000000	       -0.0170161168	        0.0000000000	        0.0000000000	        0.0000000000	        0.0000000000	        0.0000000000	        0.0000000000	
        0.0557699839	      -95.7289610940	      797.3504954715	      -14.3696098304	        0.1966689597	        0.0000000000	        0.0388209759	       -3.6248493507	       86.1013370566	       -8.0514169350	       -0.2917682487	        0.0000000000	       -0.0170729557	        0.0000000000	        0.0000000000	        0.0000000000	        0.0000000000	        0.0000000000	        0.0000000000	
        0.0669239807	     -106.7568026134	      848.4777980661	      -16.7212788596	        0.2018529276	        0.0000000000	        0.0401913320	      -10.5715838328	       36.1322896989	       -5.0178696791	       -0.2925404279	        0.0000000000	       -0.0171298749	        0.0000000000	        0.0000000000	        0.0000000000	        0.0000000000	        0.0000000000	        0.0000000000	
        0.0780779775	     -114.4348519068	      866.8801258651	      -16.4876261154	        0.2061905617	        0.0000000000	        0.0410714566	        0.1425520908	       -0.1442321141	        0.0006876060	        0.0000000000	        0.0000000000	        0.0000000000	        0.0000000000	        0.0000000000	        0.0000000000	        0.0000000000	        0.0000000000	        0.0000000000	
        0.0892319743	     -107.5974805267	      864.6673029914	      -16.1073708217	        0.2100540133	        0.0000000000	        0.0412932808	        0.0001364903	       -0.0001149678	       -0.0000088740	        0.0000000000	        0.0000000000	        0.0000000000	        0.0000000000	        0.0000000000	        0.0000000000	        0.0000000000	        0.0000000000	        0.0000000000	
        0.1003859710	      -95.7006327856	      834.9420284195	      -16.8052030576	        0.2143895325	        0.0000000000	        0.0413248332	        0.0000347384	       -0.0000255656	       -0.0000027147	        0.0000000000	        0.0000000000	        0.0000000000	        0.0000000000	        0.0000000000	        0.0000000000	        0.0000000000	        0.0000000000	        0.0000000000	
        0.1115399678	      -83.6345440721	      795.1401735607	      -16.7811476727	        0.2190946060	        0.0000000000	        0.0412261684	        0.0001194021	       -0.0000789669	       -0.0000101396	        0.0000000000	        0.0000000000	        0.0000000000	        0.0000000000	        0.0000000000	        0.0000000000	        0.0000000000	        0.0000000000	        0.0000000000	
        0.1226939646	      -71.4452057270	      749.7460457730	      -16.5208491187	        0.2234148778	        0.0000000000	        0.0411167506	        0.0036492335	       -0.0022367826	       -0.0003114834	        0.0000000000	        0.0000000000	        0.0000000000	        0.0000000000	        0.0000000000	        0.0000000000	        0.0000000000	        0.0000000000	        0.0000000000	
        0.1338479614	      -60.0144563726	      706.7357233936	      -16.5254418220	        0.2272801652	        0.0000000000	        0.0410797313	       -0.0220065409	        0.0126578315	        0.0018646352	        0.0000000000	        0.0000000000	        0.0000000000	        0.0000000000	        0.0000000000	        0.0000000000	        0.0000000000	        0.0000000000	        0.0000000000	
        0.1450019582	      -49.6978496194	      671.0232253070	      -16.9629952673	        0.2309675999	        0.0000000000	        0.0411089846	       -0.0185393196	        0.0100477389	        0.0015846817	        0.0000000000	        0.0000000000	        0.0000000000	        0.0000000000	        0.0000000000	        0.0000000000	        0.0000000000	        0.0000000000	        0.0000000000	
        0.1561559549	      -40.6543590940	      642.8578298520	      -17.6043469060	        0.2347203512	        0.0000000000	        0.0411843412	       -0.0113170041	        0.0057932656	        0.0009932010	        0.0000000000	        0.0000000000	        0.0000000000	        0.0000000000	        0.0000000000	        0.0000000000	        0.0000000000	        0.0000000000	        0.0000000000	
        0.1673099517	      -33.1639758919	      620.8685318829	      -18.4154395026	        0.2386032652	        0.0000000000	        0.0412824571	       -0.0083221796	        0.0040409754	        0.0007557323	        0.0000000000	        0.0000000000	        0.0000000000	        0.0000000000	        0.0000000000	        0.0000000000	        0.0000000000	        0.0000000000	        0.0000000000	
        0.1784639485	      -26.9125511848	      603.9138978004	      -19.0301933967	        0.2426424302	        0.0000000000	        0.0413901362	       -0.0080874162	        0.0037474593	        0.0007569866	        0.0000000000	        0.0000000000	        0.0000000000	        0.0000000000	        0.0000000000	        0.0000000000	        0.0000000000	        0.0000000000	        0.0000000000	
        0.1896179453	      -21.8722037250	      591.6481524110	      -19.3607356874	        0.2470459883	        0.0000000000	        0.0414836327	       -0.0103941008	        0.0046275019	        0.0009946318	        0.0000000000	        0.0000000000	        0.0000000000	        0.0000000000	        0.0000000000	        0.0000000000	        0.0000000000	        0.0000000000	        0.0000000000	
        0.2007719421	      -19.1969236902	      584.2698046160	      -19.3898823873	        0.2517543841	        0.0000000000	        0.0415360119	       -0.0169719670	        0.0073066758	        0.0016451128	        0.0000000000	        0.0000000000	        0.0000000000	        0.0000000000	        0.0000000000	        0.0000000000	        0.0000000000	        0.0000000000	        0.0000000000	
        0.2119259389	      -17.0841150651	      580.9821707254	      -19.3016329169	        0.2567510675	        0.0000000000	        0.0415323705	       -0.0329825267	        0.0138047582	        0.0032124563	        0.0000000000	        0.0000000000	        0.0000000000	        0.0000000000	        0.0000000000	        0.0000000000	        0.0000000000	        0.0000000000	        0.0000000000	
